# Blender v2.82 (sub 7) OBJ File: 'Bruxa.blend'
# www.blender.org
mtllib Cruz.mtl
v -7.664453 0.528114 0.271656
v -7.664453 2.528114 0.271656
v -7.664453 0.528114 -0.271656
v -7.664453 2.528114 -0.271656
v -7.173748 0.528114 0.271656
v -7.173748 2.528114 0.271656
v -7.173748 0.528114 -0.271656
v -7.173748 2.528114 -0.271656
v -7.664453 2.052089 0.271656
v -7.664453 2.052089 -0.271656
v -7.173748 2.052089 -0.271656
v -7.173748 2.052089 0.271656
v -7.664453 1.612858 -0.271656
v -7.173748 1.612858 -0.271656
v -7.173748 1.612858 0.271656
v -7.664453 1.612858 0.271656
v -7.664453 1.612858 0.271656
v -7.664453 2.052089 0.271656
v -7.173748 2.052089 -0.271656
v -7.173748 2.052089 0.271656
v -7.664453 2.052089 -0.271656
v -7.664453 1.612858 -0.271656
v -7.173748 1.612858 -0.271656
v -7.173748 1.612858 0.271656
v -6.718758 2.052089 -0.271656
v -6.718758 2.052089 0.271656
v -6.718758 1.612858 -0.271656
v -6.718758 1.612858 0.271656
v -8.124666 1.612858 0.271656
v -8.124666 2.052089 0.271656
v -8.124666 2.052089 -0.271656
v -8.124666 1.612858 -0.271656
vt 0.938109 0.661812
vt 0.874000 0.661812
vt 0.874000 0.338188
vt 0.938109 0.338188
vt 0.938109 0.328479
vt 0.874000 0.328479
vt 0.874000 0.004854
vt 0.938109 0.004854
vt 0.709621 0.671521
vt 0.773730 0.671521
vt 0.773730 0.995146
vt 0.709621 0.995146
vt 0.004040 0.081881
vt 0.004040 0.004854
vt 0.273394 0.004854
vt 0.273394 0.081881
vt 0.550827 0.328479
vt 0.281474 0.328479
vt 0.281474 0.004854
vt 0.550827 0.004854
vt 0.273394 0.338188
vt 0.273394 0.661812
vt 0.004040 0.661812
vt 0.004040 0.338188
vt 0.004040 0.152954
vt 0.273394 0.152954
vt 0.000000 0.000000
vt 0.000000 0.000000
vt 0.000000 0.000000
vt 0.000000 0.000000
vt 0.000000 0.000000
vt 0.000000 0.000000
vt 0.000000 0.000000
vt 0.000000 0.000000
vt 0.000000 0.000000
vt 0.000000 0.000000
vt 0.000000 0.000000
vt 0.000000 0.000000
vt 0.706468 0.995146
vt 0.560378 0.995146
vt 0.560378 0.671521
vt 0.706468 0.671521
vt 0.555995 0.995146
vt 0.409906 0.995146
vt 0.409906 0.671521
vt 0.555995 0.671521
vt 0.405523 0.995146
vt 0.259433 0.995146
vt 0.259433 0.671521
vt 0.405523 0.671521
vt 0.004040 0.328479
vt 0.273394 0.328479
vt 0.558614 0.328479
vt 0.558614 0.004854
vt 0.808363 0.004854
vt 0.808363 0.328479
vt 0.872151 0.637603
vt 0.812997 0.637603
vt 0.812997 0.313979
vt 0.872151 0.313979
vt 0.281223 0.661812
vt 0.281223 0.338188
vt 0.533839 0.338188
vt 0.533839 0.661812
vt 0.000000 0.000000
vt 0.000000 0.000000
vt 0.000000 0.000000
vt 0.000000 0.000000
vt 0.994009 0.995146
vt 0.934855 0.995146
vt 0.934855 0.671521
vt 0.994009 0.671521
vt 0.939958 0.317122
vt 0.999113 0.317122
vt 0.999113 0.617192
vt 0.939958 0.617192
vt 0.003746 0.995146
vt 0.003746 0.671521
vt 0.253495 0.671521
vt 0.253495 0.995146
vt 0.812997 0.013908
vt 0.872151 0.013908
vt 0.933080 0.995146
vt 0.873926 0.995146
vt 0.873926 0.671521
vt 0.933080 0.671521
vt 0.872151 0.941119
vt 0.812997 0.941119
vt 0.939958 0.004553
vt 0.999113 0.004553
vt 0.999113 0.308068
vt 0.939958 0.308068
vt 0.541418 0.661812
vt 0.541418 0.338188
vt 0.794034 0.338188
vt 0.794034 0.661812
vn -1.0000 0.0000 0.0000
vn 0.0000 0.0000 -1.0000
vn 1.0000 0.0000 0.0000
vn 0.0000 0.0000 1.0000
vn 0.0000 -1.0000 0.0000
vn 0.0000 1.0000 0.0000
usemtl Material
s off
f 9/1/1 2/2/1 4/3/1 10/4/1
f 10/5/2 4/6/2 8/7/2 11/8/2
f 11/9/3 8/10/3 6/11/3 12/12/3
f 12/13/4 6/14/4 2/15/4 9/16/4
f 3/17/5 7/18/5 5/19/5 1/20/5
f 8/21/6 4/22/6 2/23/6 6/24/6
f 15/25/4 12/13/4 9/16/4 16/26/4
f 16/27/4 9/28/4 18/29/4 17/30/4
f 14/31/4 13/32/4 22/33/4 23/34/4
f 10/35/4 11/36/4 19/37/4 21/38/4
f 1/39/1 16/40/1 13/41/1 3/42/1
f 3/43/2 13/44/2 14/45/2 7/46/2
f 7/47/3 14/48/3 15/49/3 5/50/3
f 5/51/4 15/25/4 16/26/4 1/52/4
f 19/53/6 20/54/6 26/55/6 25/56/6
f 22/57/2 21/58/2 19/59/2 23/60/2
f 18/61/6 21/62/6 31/63/6 30/64/6
f 9/28/4 10/35/4 21/38/4 18/29/4
f 11/36/4 12/65/4 20/66/4 19/37/4
f 15/67/4 14/31/4 23/34/4 24/68/4
f 13/32/4 16/27/4 17/30/4 22/33/4
f 12/65/4 15/67/4 24/68/4 20/66/4
f 27/69/3 25/70/3 26/71/3 28/72/3
f 20/73/4 24/74/4 28/75/4 26/76/4
f 24/77/5 23/78/5 27/79/5 28/80/5
f 23/60/2 19/59/2 25/81/2 27/82/2
f 29/83/1 30/84/1 31/85/1 32/86/1
f 21/58/2 22/57/2 32/87/2 31/88/2
f 17/89/4 18/90/4 30/91/4 29/92/4
f 22/93/5 17/94/5 29/95/5 32/96/5
